<svg id="Layer_1" data-name="Layer 1" xmlns="http://www.w3.org/2000/svg" viewBox="0 0 250.98 33.18"><defs><style>.cls-1{fill:#49495f;}</style></defs><path class="cls-1" d="M140,267.21v-8.77h0v-1h0v-16.1h0v-1h-9.53v.87c2.64-.07,3.95,1.26,3.95,4v22q0,4-3.95,4v.87H143.9v-.87Q139.94,271.2,140,267.21Z" transform="translate(-130.44 -239.07)"/><path class="cls-1" d="M154.24,243a9.09,9.09,0,0,0-6.59-2.65h-5.42v1h1.39a7.05,7.05,0,0,1,5.32,2.29,8.48,8.48,0,0,1,0,11.46,7.06,7.06,0,0,1-5.32,2.35h-1.39v1h5.42a9.09,9.09,0,0,0,6.59-2.65,8.87,8.87,0,0,0,0-12.8Z" transform="translate(-130.44 -239.07)"/><path class="cls-1" d="M295.3,265.26l.64,1.63-1.73,5.36h-1.9l-10.86-26.87c-1.09-2.66-2.57-4-4.45-4v-.87h13.13v.87c-2.88,0-3.8,1.34-2.75,4Z" transform="translate(-130.44 -239.07)"/><path class="cls-1" d="M316.42,267l-1.75,5.3h-1.9l-10.23-25.76-5.5,17-.64-1.61,5.44-16.61c.85-2.57-.43-3.88-3.81-3.91v-.87h13.12v.87c-3.25,0-4.36,1.34-3.31,4l6.91,17.36Z" transform="translate(-130.44 -239.07)"/><path class="cls-1" d="M320.19,240.51v.88q3.66,0,2.27,4L316.87,262l.66,1.64,6-18.22c.87-2.66,2.43-4,4.66-4v-.88Z" transform="translate(-130.44 -239.07)"/><path class="cls-1" d="M352.24,251l8.35-1.23V267q0,4.27,3,4.45v.76H352.24v-.76c2-.1,3-1.59,3-4.45V254.82c0-2.4-1-3.41-3-3Zm8.63-8a3,3,0,0,1-.88,2.23,2.94,2.94,0,0,1-2.16.89,3,3,0,0,1-2.19-.89,3,3,0,0,1-.92-2.23,2.94,2.94,0,0,1,.92-2.21,3,3,0,0,1,2.19-.89,3.16,3.16,0,0,1,3,3.1Z" transform="translate(-130.44 -239.07)"/><path class="cls-1" d="M167.85,266.69q0,4.57,3.05,4.64v.74H159.43v-.74q3.13-.06,3.14-4.64V244.31c0-2.52-1-3.58-3.14-3.19v-.78l8.42-1.27v27.62Z" transform="translate(-130.44 -239.07)"/><path class="cls-1" d="M218.94,269.61a4.17,4.17,0,0,1-3,.87c-.73-.22-1.09-1-1.09-2.36V257.17a10.17,10.17,0,0,0-.9-4.71q-1.74-3.48-8.65-3.49a10.13,10.13,0,0,0-6.42,1.94,2.87,2.87,0,0,0-1.31,2.38,1.92,1.92,0,0,0,.75,1.31,1.8,1.8,0,0,0,1.44.31,2,2,0,0,0,1.15-.68,4.55,4.55,0,0,0,.9-1.46,9,9,0,0,1,1-2,3.61,3.61,0,0,1,2.53-.72q4.33,0,4.38,2.84v9.62a11.16,11.16,0,0,1-1.2,5.47,3.62,3.62,0,0,1-3.34,2.14,3.05,3.05,0,0,1-2.72-1.35,6,6,0,0,1-1-3.17,6.43,6.43,0,0,1,.74-3.22,5,5,0,0,1,2.38-2.21c.56-.28,1.09-.56,1.57-.82a3.88,3.88,0,0,0,2-3.39h0a19.66,19.66,0,0,1-6.85,3.62c-3.37,1.17-5.06,3.26-5.06,6.29a5.7,5.7,0,0,0,1.86,4.47,7.38,7.38,0,0,0,4.71,1.74,8.47,8.47,0,0,0,4.32-1,7.25,7.25,0,0,0,2.7-2.42c.18,2.17,1.73,3.25,4.67,3.25a8.6,8.6,0,0,0,4.78-1.64Z" transform="translate(-130.44 -239.07)"/><path class="cls-1" d="M348.59,269.79a4.16,4.16,0,0,1-3,.87c-.72-.22-1.09-1-1.09-2.36V257.35a10.12,10.12,0,0,0-.89-4.71q-1.74-3.48-8.66-3.49a10.08,10.08,0,0,0-6.41,1.94,2.83,2.83,0,0,0-1.31,2.38,1.93,1.93,0,0,0,.74,1.31,1.75,1.75,0,0,0,1.44.3,2,2,0,0,0,1.16-.67,4.54,4.54,0,0,0,.89-1.46,8.79,8.79,0,0,1,1-2,3.63,3.63,0,0,1,2.53-.72c2.89,0,4.36.95,4.39,2.84v9.61a11.28,11.28,0,0,1-1.2,5.48,3.64,3.64,0,0,1-3.34,2.14,3.08,3.08,0,0,1-2.73-1.35,6.22,6.22,0,0,1-1-3.17,6.6,6.6,0,0,1,.74-3.23,5,5,0,0,1,2.38-2.2c.57-.28,1.09-.56,1.57-.82a3.86,3.86,0,0,0,2-3.39h0a19.5,19.5,0,0,1-6.84,3.62q-5.06,1.75-5.06,6.28a5.73,5.73,0,0,0,1.85,4.48,7.43,7.43,0,0,0,4.71,1.74,8.57,8.57,0,0,0,4.32-1,7.37,7.37,0,0,0,2.71-2.42q.25,3.25,4.67,3.25a8.6,8.6,0,0,0,4.77-1.64Z" transform="translate(-130.44 -239.07)"/><path class="cls-1" d="M190.77,266.45a1.76,1.76,0,0,0-1.44-.31,2,2,0,0,0-1.15.68,4.55,4.55,0,0,0-.9,1.46,8.17,8.17,0,0,1-1,2,3.61,3.61,0,0,1-2.53.72q-4.33,0-4.38-2.83c0-.06,0-.12,0-.18h0v-3.8h0v-5.65a11.2,11.2,0,0,1,1.2-5.48,3.63,3.63,0,0,1,3.34-2.13,3,3,0,0,1,2.72,1.35,6,6,0,0,1,1,3.16,6.47,6.47,0,0,1-.74,3.23,5,5,0,0,1-2.38,2.2c-.56.29-1.09.56-1.57.83a3.86,3.86,0,0,0-2,3.38h0a19.83,19.83,0,0,1,6.85-3.62c3.37-1.16,5.06-3.26,5.06-6.28a5.67,5.67,0,0,0-1.86-4.47,7,7,0,0,0-4.71-1.75c-6.38,0-12,5-12,11.38v3.52a10.11,10.11,0,0,0,.9,4.71q1.74,3.5,8.65,3.49a10.07,10.07,0,0,0,6.42-1.94,2.84,2.84,0,0,0,1.31-2.38A1.92,1.92,0,0,0,190.77,266.45Z" transform="translate(-130.44 -239.07)"/><path class="cls-1" d="M259.27,266.45a1.76,1.76,0,0,0-1.44-.31,2,2,0,0,0-1.15.68,4.55,4.55,0,0,0-.9,1.46,8.6,8.6,0,0,1-1,2,3.63,3.63,0,0,1-2.53.72q-4.33,0-4.38-2.83c0-.06,0-.12,0-.18h0v-3.8h0v-5.65a11.2,11.2,0,0,1,1.2-5.48,3.63,3.63,0,0,1,3.34-2.13,3,3,0,0,1,2.72,1.35,6,6,0,0,1,1,3.16,6.47,6.47,0,0,1-.74,3.23,5,5,0,0,1-2.38,2.2c-.56.29-1.09.56-1.57.83a3.86,3.86,0,0,0-2,3.38h0a19.86,19.86,0,0,1,6.84-3.62c3.38-1.16,5.06-3.26,5.06-6.28a5.67,5.67,0,0,0-1.85-4.47,7,7,0,0,0-4.71-1.75c-6.38,0-12,5-12,11.38v3.52a10.25,10.25,0,0,0,.89,4.71q1.76,3.5,8.66,3.49a10.07,10.07,0,0,0,6.42-1.94,2.8,2.8,0,0,0,1.3-2.38A1.87,1.87,0,0,0,259.27,266.45Z" transform="translate(-130.44 -239.07)"/><rect class="cls-1" x="246.6" y="10.73" width="2.98" height="1.05"/><path class="cls-1" d="M381.07,269.17A20,20,0,0,1,379,270a2.39,2.39,0,0,1-2.62-.45,5.34,5.34,0,0,1-.89-3.47V250.85h0v-1h0v-8.05h-.7a14.53,14.53,0,0,1-3.12,5.38,9.26,9.26,0,0,1-4.6,3v.67h3.1v15.71q0,7.89,8.83,4.84a16.07,16.07,0,0,0,2.4-1Z" transform="translate(-130.44 -239.07)"/><path class="cls-1" d="M233.4,249.64a3.68,3.68,0,0,0,1.88.44.54.54,0,0,0,.43-.66h.74l.7,6.55h-.7a6.86,6.86,0,0,0-2.22-4.32,4.67,4.67,0,0,0-1.9-1.09,5.46,5.46,0,0,0-2.18-.37,4,4,0,0,0-2.81,1,2.81,2.81,0,0,0-1.05,2,2.65,2.65,0,0,0,.78,2.1,14.36,14.36,0,0,0,4,1.94,24.54,24.54,0,0,1,4.23,1.74,6.28,6.28,0,0,1,3.23,6,7.76,7.76,0,0,1-2.29,5.22,7.14,7.14,0,0,1-6.08,1.76,12.25,12.25,0,0,1-2.69-.59c-1.76-.65-2.83-.9-3.2-.76s-.56.47-.57,1h-.72l-.13-7h.7a8.62,8.62,0,0,0,.5,2,5.6,5.6,0,0,0,1.31,1.72,8.92,8.92,0,0,0,4.84,2.33,5.69,5.69,0,0,0,4-.63,3,3,0,0,0,1.46-2.4,3.24,3.24,0,0,0-.65-2.53,5.28,5.28,0,0,0-2-1.33,31.18,31.18,0,0,0-3.29-1.24c-1.27-.47-2.2-.82-2.79-1.07A6.28,6.28,0,0,1,223,255.4a6.49,6.49,0,0,1,1.87-4.54,7.2,7.2,0,0,1,5.22-1.81A9.73,9.73,0,0,1,233.4,249.64Z" transform="translate(-130.44 -239.07)"/></svg>